<?xml version="1.0" encoding="iso-8859-1"?>
<!-- Generator: Adobe Illustrator 18.0.0, SVG Export Plug-In . SVG Version: 6.00 Build 0)  -->
<!DOCTYPE svg PUBLIC "-//W3C//DTD SVG 1.1//EN" "http://www.w3.org/Graphics/SVG/1.1/DTD/svg11.dtd">
<svg version="1.1" id="Capa_1" xmlns="http://www.w3.org/2000/svg" xmlns:xlink="http://www.w3.org/1999/xlink" x="0px" y="0px"
	 viewBox="0 0 391.654 391.654" style="enable-background:new 0 0 391.654 391.654;" xml:space="preserve">
<g>
	<g>
		<g>
			<path style="fill:#3D6889;" d="M369.679,391.654H21.976c-6.629,0-12-5.373-12-12V12c0-6.627,5.371-12,12-12h347.703
				c6.627,0,12,5.373,12,12v367.654C381.679,386.281,376.306,391.654,369.679,391.654z M33.976,367.654h323.703V24H33.976V367.654z"
				/>
		</g>
		<g>
			<path style="fill:#3D6889;" d="M305.229,100.855H86.425c-6.627,0-12-5.371-12-12c0-6.627,5.373-12,12-12h218.805
				c6.627,0,12,5.373,12,12C317.229,95.484,311.856,100.855,305.229,100.855z"/>
		</g>
		<g>
			<path style="fill:#3D6889;" d="M305.229,172.17H86.425c-6.627,0-12-5.371-12-12c0-6.627,5.373-12,12-12h218.805
				c6.627,0,12,5.373,12,12C317.229,166.799,311.856,172.17,305.229,172.17z"/>
		</g>
		<g>
			<path style="fill:#3D6889;" d="M305.229,243.484H86.425c-6.627,0-12-5.371-12-12c0-6.627,5.373-12,12-12h218.805
				c6.627,0,12,5.373,12,12C317.229,238.113,311.856,243.484,305.229,243.484z"/>
		</g>
		<g>
			<path style="fill:#3D6889;" d="M178.007,314.799H86.425c-6.627,0-12-5.372-12-12c0-6.627,5.373-12,12-12h91.582
				c6.627,0,12,5.373,12,12C190.007,309.427,184.634,314.799,178.007,314.799z"/>
		</g>
	</g>
</g>
<g>
</g>
<g>
</g>
<g>
</g>
<g>
</g>
<g>
</g>
<g>
</g>
<g>
</g>
<g>
</g>
<g>
</g>
<g>
</g>
<g>
</g>
<g>
</g>
<g>
</g>
<g>
</g>
<g>
</g>
</svg>
