<?xml version="1.0" encoding="iso-8859-1"?>
<!-- Generator: Adobe Illustrator 18.1.1, SVG Export Plug-In . SVG Version: 6.00 Build 0)  -->
<svg version="1.1" id="Capa_1" xmlns="http://www.w3.org/2000/svg" xmlns:xlink="http://www.w3.org/1999/xlink" x="0px" y="0px"
	 viewBox="0 0 45.097 45.097" style="enable-background:new 0 0 45.097 45.097;" xml:space="preserve">
<g>
	<path style="fill:#010002;" d="M11.022,35.237l-0.719,9.187c-0.017,0.221,0.085,0.436,0.267,0.563
		c0.104,0.072,0.227,0.11,0.355,0.11c0.091,0,0.18-0.02,0.266-0.059l13.011-6.1c10.016-0.846,17.858-9.374,17.858-19.426
		C42.06,8.753,33.308,0,22.549,0S3.037,8.753,3.037,19.512C3.038,25.694,6.021,31.566,11.022,35.237z M22.549,1.252
		c10.069,0,18.261,8.192,18.261,18.262c0,9.46-7.388,17.449-16.818,18.188c-0.075,0.005-0.148,0.025-0.219,0.057l-12.139,5.694
		l0.663-8.468c0.017-0.219-0.084-0.433-0.262-0.559c-4.851-3.423-7.746-8.998-7.746-14.911C4.288,9.444,12.48,1.252,22.549,1.252z"
		/>
</g>
<g>
</g>
<g>
</g>
<g>
</g>
<g>
</g>
<g>
</g>
<g>
</g>
<g>
</g>
<g>
</g>
<g>
</g>
<g>
</g>
<g>
</g>
<g>
</g>
<g>
</g>
<g>
</g>
<g>
</g>
</svg>
